<svg width="45" height="35" viewBox="0 0 45 35" fill="none" xmlns="http://www.w3.org/2000/svg">
<path fill-rule="evenodd" clip-rule="evenodd" d="M1.25368 1.17035C0.375 2.04903 0.375 3.46325 0.375 6.29167V28.7083C0.375 31.5368 0.375 32.951 1.25368 33.8297C2.13236 34.7083 3.54657 34.7083 6.375 34.7083H38.625C41.4534 34.7083 42.8676 34.7083 43.7463 33.8297C44.625 32.951 44.625 31.5368 44.625 28.7083V6.29167C44.625 3.46324 44.625 2.04903 43.7463 1.17035C42.8676 0.291672 41.4534 0.291672 38.625 0.291672H6.375C3.54657 0.291672 2.13236 0.291672 1.25368 1.17035ZM8.3047 9.29295C7.84517 8.9866 7.2243 9.11078 6.91795 9.5703C6.6116 10.0298 6.73577 10.6507 7.1953 10.9571L21.3906 20.4206C22.0624 20.8685 22.9376 20.8685 23.6094 20.4206L37.8047 10.9571C38.2642 10.6507 38.3884 10.0298 38.0821 9.5703C37.7757 9.11078 37.1548 8.9866 36.6953 9.29295L22.5 18.7565L8.3047 9.29295Z" fill="#222222"/>
</svg>
