<svg width="30" height="30" viewBox="0 0 30 30" fill="none" xmlns="http://www.w3.org/2000/svg">
<path fill-rule="evenodd" clip-rule="evenodd" d="M19.5 19.4805C18.0894 19.0017 16.5584 18.75 15 18.75C12.5235 18.75 10.1161 19.3856 8.1514 20.5582C6.56195 21.5068 5.334 22.7639 4.58352 24.1946C4.30375 24.728 4.65482 25.344 5.24444 25.4669L6.8391 25.7992C11.0091 26.6683 15.2831 26.8641 19.5 26.3866V25.5H17.5C15.8431 25.5 14.5 24.1569 14.5 22.5C14.5 20.8431 15.8431 19.5 17.5 19.5H19.5V19.4805Z" fill="#474D52"/>
<path d="M22.5 17.5L22.5 27.5" stroke="#474D52" stroke-width="2.5" stroke-linecap="round"/>
<path d="M27.5 22.5L17.5 22.5" stroke="#474D52" stroke-width="2.5" stroke-linecap="round"/>
<circle cx="15" cy="10" r="6.25" fill="#474D52"/>
</svg>
