<svg width="30" height="30" viewBox="0 0 30 30" fill="none" xmlns="http://www.w3.org/2000/svg">
<path fill-rule="evenodd" clip-rule="evenodd" d="M0 6C0 3.17157 0 1.75736 0.87868 0.87868C1.75736 0 3.17157 0 6 0H21.6765C22.494 0 22.9027 0 23.2703 0.152241C23.6378 0.304482 23.9268 0.593512 24.5049 1.17157L28.8284 5.49509C29.4065 6.07315 29.6955 6.36218 29.8478 6.72973C30 7.09727 30 7.50602 30 8.32352V24C30 26.8284 30 28.2426 29.1213 29.1213C28.2426 30 26.8284 30 24 30H22.6667V23L22.6667 22.9384C22.6667 22.2843 22.6668 21.6966 22.6028 21.2208C22.533 20.7015 22.3709 20.1687 21.9344 19.7322C21.498 19.2958 20.9652 19.1337 20.4458 19.0638C19.9701 18.9999 19.3824 18.9999 18.7283 19L18.6667 19H9.66667L9.60506 19C8.95093 18.9999 8.36322 18.9999 7.88751 19.0638C7.36815 19.1337 6.83534 19.2958 6.3989 19.7322C5.96246 20.1687 5.80033 20.7015 5.7305 21.2208C5.66654 21.6966 5.6666 22.2843 5.66666 22.9384L5.66667 23V29.9999C3.05907 29.9986 1.72214 29.9648 0.87868 29.1213C0 28.2426 0 26.8284 0 24V6ZM20.6667 23V30H7.66667V23C7.66667 22.2646 7.66879 21.8137 7.71267 21.4873C7.75123 21.2005 7.80608 21.1526 7.81259 21.1469L7.81311 21.1464L7.81358 21.1459C7.81926 21.1394 7.86716 21.0846 8.15401 21.046C8.48036 21.0021 8.93129 21 9.66667 21H18.6667C19.402 21 19.853 21.0021 20.1793 21.046C20.4662 21.0846 20.5141 21.1394 20.5197 21.1459L20.5202 21.1464L20.5207 21.1469C20.5273 21.1526 20.5821 21.2005 20.6207 21.4873C20.6645 21.8137 20.6667 22.2646 20.6667 23ZM6.66667 7.33333C6.11438 7.33333 5.66667 7.78105 5.66667 8.33333C5.66667 8.88562 6.11438 9.33333 6.66667 9.33333H15C15.5523 9.33333 16 8.88562 16 8.33333C16 7.78105 15.5523 7.33333 15 7.33333H6.66667Z" fill="#545454"/>
</svg>
