<svg width="37" height="37" viewBox="0 0 37 37" fill="none" xmlns="http://www.w3.org/2000/svg">
<path fill-rule="evenodd" clip-rule="evenodd" d="M15.2307 10.6315L18.6849 7.17725C20.0182 5.84391 20.6849 5.17725 21.5133 5.17725C22.3418 5.17725 23.0084 5.84391 24.3418 7.17725L24.8516 7.68706C26.1849 9.02039 26.8516 9.68706 26.8516 10.5155C26.8516 11.3439 26.1849 12.0106 24.8516 13.3439L21.4311 16.7644C18.8682 15.2777 16.736 13.1615 15.2307 10.6315ZM13.7764 12.0858L2.32805 23.5341C1.90299 23.9592 1.69046 24.1717 1.55073 24.4328C1.411 24.6939 1.35205 24.9886 1.23416 25.5781L0.0770963 31.3634C0.0105743 31.696 -0.0226867 31.8623 0.0719214 31.9569C0.166526 32.0515 0.332822 32.0183 0.665406 31.9517L0.665428 31.9517L0.665445 31.9517L6.45076 30.7947C7.04021 30.6768 7.33494 30.6178 7.59603 30.4781C7.85713 30.3384 8.06966 30.1258 8.49472 29.7008L19.9731 18.2224C17.461 16.6716 15.3431 14.5685 13.7764 12.0858Z" fill="white"/>
</svg>
