<svg width="37" height="37" viewBox="0 0 37 37" fill="none" xmlns="http://www.w3.org/2000/svg">
<path fill-rule="evenodd" clip-rule="evenodd" d="M32.3751 9.25H4.62509V13.875C5.63529 13.875 6.14038 13.875 6.53384 14.0533C6.97581 14.2535 7.3299 14.6076 7.53015 15.0496C7.70842 15.443 7.70842 15.9481 7.70842 16.9583V26.375C7.70842 29.2034 7.70842 30.6176 8.5871 31.4963C9.46578 32.375 10.88 32.375 13.7084 32.375H23.2918C26.1202 32.375 27.5344 32.375 28.4131 31.4963C29.2918 30.6176 29.2918 29.2034 29.2918 26.375V16.9583C29.2918 15.9481 29.2918 15.443 29.47 15.0496C29.6703 14.6076 30.0244 14.2535 30.4663 14.0533C30.8598 13.875 31.3649 13.875 32.3751 13.875V9.25ZM15.6459 16.9583C15.6459 16.406 15.1982 15.9583 14.6459 15.9583C14.0936 15.9583 13.6459 16.406 13.6459 16.9583V24.6667C13.6459 25.219 14.0936 25.6667 14.6459 25.6667C15.1982 25.6667 15.6459 25.219 15.6459 24.6667V16.9583ZM23.3543 16.9583C23.3543 16.406 22.9065 15.9583 22.3543 15.9583C21.802 15.9583 21.3543 16.406 21.3543 16.9583V24.6667C21.3543 25.219 21.802 25.6667 22.3543 25.6667C22.9065 25.6667 23.3543 25.219 23.3543 24.6667V16.9583Z" fill="white"/>
<path d="M15.5217 5.19633C15.6974 5.03242 16.0845 4.88759 16.623 4.78429C17.1615 4.68099 17.8212 4.625 18.5 4.625C19.1787 4.625 19.8385 4.68099 20.377 4.78429C20.9155 4.88759 21.3026 5.03242 21.4783 5.19633" stroke="white" stroke-width="2" stroke-linecap="round"/>
</svg>
