<svg width="27" height="28" viewBox="0 0 27 28" fill="none" xmlns="http://www.w3.org/2000/svg">
<path fill-rule="evenodd" clip-rule="evenodd" d="M15.2307 5.6315L18.6849 2.17725C20.0182 0.843913 20.6849 0.177246 21.5133 0.177246C22.3418 0.177246 23.0084 0.843913 24.3418 2.17725L24.8516 2.68706C26.1849 4.02039 26.8516 4.68706 26.8516 5.51549C26.8516 6.34391 26.1849 7.01058 24.8516 8.34391L21.4311 11.7644C18.8682 10.2777 16.736 8.1615 15.2307 5.6315ZM13.7764 7.08578L2.32805 18.5341C1.90299 18.9592 1.69046 19.1717 1.55073 19.4328C1.411 19.6939 1.35205 19.9886 1.23416 20.5781L0.0770963 26.3634C0.0105743 26.696 -0.0226867 26.8623 0.0719214 26.9569C0.166526 27.0515 0.332822 27.0183 0.665406 26.9517L0.665428 26.9517L0.665445 26.9517L6.45076 25.7947C7.04021 25.6768 7.33494 25.6178 7.59603 25.4781C7.85713 25.3384 8.06966 25.1258 8.49472 24.7008L19.9731 13.2224C17.461 11.6716 15.3431 9.56852 13.7764 7.08578Z" fill="white"/>
</svg>
