<svg width="30" height="30" viewBox="0 0 30 30" fill="none" xmlns="http://www.w3.org/2000/svg">
<path fill-rule="evenodd" clip-rule="evenodd" d="M26.2501 7.5H3.75006V11.25C4.21472 11.25 4.44704 11.25 4.64024 11.2884C5.43362 11.4462 6.05382 12.0664 6.21163 12.8598C6.25006 13.053 6.25006 13.2853 6.25006 13.75V20.25C6.25006 23.0784 6.25006 24.4926 7.12874 25.3713C8.00742 26.25 9.42163 26.25 12.2501 26.25H17.7501C20.5785 26.25 21.9927 26.25 22.8714 25.3713C23.7501 24.4926 23.7501 23.0784 23.7501 20.25V13.75C23.7501 13.2853 23.7501 13.053 23.7885 12.8598C23.9463 12.0664 24.5665 11.4462 25.3599 11.2884C25.5531 11.25 25.7854 11.25 26.2501 11.25V7.5ZM12.8751 13.75C12.8751 13.1977 12.4273 12.75 11.8751 12.75C11.3228 12.75 10.8751 13.1977 10.8751 13.75V20C10.8751 20.5523 11.3228 21 11.8751 21C12.4273 21 12.8751 20.5523 12.8751 20V13.75ZM19.1251 13.75C19.1251 13.1977 18.6773 12.75 18.1251 12.75C17.5728 12.75 17.1251 13.1977 17.1251 13.75V20C17.1251 20.5523 17.5728 21 18.1251 21C18.6773 21 19.1251 20.5523 19.1251 20V13.75Z" fill="black"/>
<path d="M12.5852 4.21324C12.7276 4.08034 13.0415 3.96291 13.4781 3.87915C13.9147 3.7954 14.4497 3.75 15 3.75C15.5503 3.75 16.0853 3.7954 16.5219 3.87915C16.9585 3.96291 17.2724 4.08034 17.4148 4.21324" stroke="#222222" stroke-width="2" stroke-linecap="round"/>
</svg>
