<svg width="43" height="42" viewBox="0 0 43 42" fill="none" xmlns="http://www.w3.org/2000/svg">
<path d="M1.83331 13.1388C1.83331 11.936 1.83331 11.3346 2.13201 10.8513C2.43071 10.368 2.96863 10.099 4.04446 9.56109L19.7111 1.72776C20.5889 1.28885 21.0278 1.0694 21.5 1.0694C21.9721 1.0694 22.411 1.28885 23.2888 1.72776L38.9555 9.56109C40.0313 10.099 40.5692 10.368 40.8679 10.8513C41.1666 11.3346 41.1666 11.936 41.1666 13.1388V36.1667C41.1666 38.0523 41.1666 38.9951 40.5809 39.5809C39.9951 40.1667 39.0523 40.1667 37.1666 40.1667H5.83331C3.94769 40.1667 3.00489 40.1667 2.4191 39.5809C1.83331 38.9951 1.83331 38.0523 1.83331 36.1667V13.1388Z" stroke="#33363F" stroke-width="2"/>
<path d="M1.83331 15.5833L8.62253 22.3725C8.9976 22.7476 9.50631 22.9583 10.0367 22.9583H32.9632C33.4937 22.9583 34.0024 22.7476 34.3774 22.3725L41.1666 15.5833" stroke="#33363F" stroke-width="2" stroke-linecap="round"/>
</svg>
