<svg width="44" height="44" viewBox="0 0 44 44" fill="none" xmlns="http://www.w3.org/2000/svg">
<path fill-rule="evenodd" clip-rule="evenodd" d="M38.5001 11H5.50012V16.5C7.06384 16.5 7.8457 16.5 8.38431 16.9133C8.52298 17.0197 8.64709 17.1438 8.7535 17.2825C9.16679 17.8211 9.16679 18.603 9.16679 20.1667V32.5C9.16679 35.3284 9.16679 36.7426 10.0455 37.6213C10.9241 38.5 12.3384 38.5 15.1668 38.5H28.8335C31.6619 38.5 33.0761 38.5 33.9548 37.6213C34.8335 36.7426 34.8335 35.3284 34.8335 32.5V20.1667C34.8335 18.603 34.8335 17.8211 35.2467 17.2825C35.3531 17.1438 35.4773 17.0197 35.6159 16.9133C36.1545 16.5 36.9364 16.5 38.5001 16.5V11ZM18.4168 20.1667C18.4168 19.6144 17.9691 19.1667 17.4168 19.1667C16.8645 19.1667 16.4168 19.6144 16.4168 20.1667V29.3333C16.4168 29.8856 16.8645 30.3333 17.4168 30.3333C17.9691 30.3333 18.4168 29.8856 18.4168 29.3333V20.1667ZM27.5835 20.1667C27.5835 19.6144 27.1357 19.1667 26.5835 19.1667C26.0312 19.1667 25.5835 19.6144 25.5835 20.1667V29.3333C25.5835 29.8856 26.0312 30.3333 26.5835 30.3333C27.1357 30.3333 27.5835 29.8856 27.5835 29.3333V20.1667Z" fill="#222222"/>
<path d="M18.4583 6.17942C18.6672 5.9845 19.1275 5.81227 19.7679 5.68943C20.4082 5.56658 21.1928 5.5 22 5.5C22.8071 5.5 23.5918 5.56658 24.2321 5.68943C24.8725 5.81227 25.3328 5.9845 25.5417 6.17942" stroke="#222222" stroke-width="2" stroke-linecap="round"/>
</svg>
